<svg xmlns="http://www.w3.org/2000/svg" viewBox="0 0 205.59 32" width="452.298" height="70.4" role="img" aria-labelledby="t"><title id="t">orca-board</title><defs><linearGradient id="g" x1="0" y1="0" x2="0" y2="1"><stop offset="0" stop-color="#7b86f5"/><stop offset="1" stop-color="#5a63c8"/></linearGradient></defs><rect width="32" height="32" rx="8" fill="url(#g)"/><g transform="translate(4 4.375) scale(1.5)"><circle cx="8" cy="9" r="4.8" fill="none" stroke="#fff" stroke-width="2.4"/><path d="M6.75 4 8.5 .5 10.83 4z" fill="#fff"/></g><g transform="translate(44 23.8) scale(1.3)" fill="none" stroke-width="2.2"><g transform="translate(0 0)" stroke="#1f2328"><circle cx="6" cy="-6" r="4.9"/></g><g transform="translate(14.2 0)" stroke="#1f2328"><path d="M1.1 0V-12"/><path d="M1.1 -6.4A4.5 4.5 0 0 1 6.765 -10.747"/></g><g transform="translate(23.2 0)" stroke="#1f2328"><path d="M9.641 -9.279A4.9 4.9 0 1 0 9.641 -2.721"/></g><g transform="translate(35.9 0)" stroke="#1f2328"><circle cx="6" cy="-6" r="4.9"/><path d="M10.9 -12V0"/></g><g transform="translate(51.1 0)" stroke="#5a63c8"><path d="M0 -6H5.6"/></g><g transform="translate(59.9 0)" stroke="#1f2328"><circle cx="6" cy="-6" r="4.9"/><path d="M1.1 -17.5V0"/></g><g transform="translate(74.1 0)" stroke="#1f2328"><circle cx="6" cy="-6" r="4.9"/></g><g transform="translate(88.3 0)" stroke="#1f2328"><circle cx="6" cy="-6" r="4.9"/><path d="M10.9 -12V0"/></g><g transform="translate(103.3 0)" stroke="#1f2328"><path d="M1.1 0V-12"/><path d="M1.1 -6.4A4.5 4.5 0 0 1 6.765 -10.747"/></g><g transform="translate(112.3 0)" stroke="#1f2328"><circle cx="6" cy="-6" r="4.9"/><path d="M10.9 -17.5V0"/></g></g></svg>
